# xmcd
# Track frame offsets:
# 183
# 14075
# 26885
# 42160
# 55108
# 64995
# 78940
# 91440
# 105753
# 118605
# 130910
#
# Disc length: 1925 seconds
# Revision: 0
# Processed by: cddbd v1.4PL0 Copyright (c) Steve Scherf et al.
# Submitted via: VisiTrax 2.9.5.180 - For more info visit www.synapsa.com
#
DISCID=8c07830b
DTITLE=Roger Cooper - Better Off A Memory
DYEAR=1994
DGENRE=
TTITLE0=Sittin`At The Kitchen Table
TTITLE1=You `ve Got My Heart
TTITLE2=Them Old Hank Williams Songs
TTITLE3=The Roses Will Bloom Again
TTITLE4=The Crossroads
TTITLE5=If It `s Over
TTITLE6=Country Preacher
TTITLE7=The Pictur
TTITLE8=I´ll Never Write This Song Again
TTITLE9=Better Off A Memory
TTITLE10=Feeling Is Believing
EXTD=Hawk Records\nIreland
EXTT0=
EXTT1=
EXTT2=
EXTT3=
EXTT4=
EXTT5=
EXTT6=
EXTT7=
EXTT8=
EXTT9=
EXTT10=
PLAYORDER=
